<?xml version="1.0" encoding="UTF-8" standalone="no"?>
<!DOCTYPE svg PUBLIC "-//W3C//DTD SVG 1.1//EN"
 "http://www.w3.org/Graphics/SVG/1.1/DTD/svg11.dtd">
<!-- Generated by graphviz version 2.36.0 (20140111.2315)
 -->
<!-- Title: %3 Pages: 1 -->
<svg width="938pt" height="1254pt"
 viewBox="0.00 0.00 938.00 1254.00" xmlns="http://www.w3.org/2000/svg" xmlns:xlink="http://www.w3.org/1999/xlink">
<g id="graph0" class="graph" transform="scale(1 1) rotate(0) translate(4 1250)">
<title>%3</title>
<polygon fill="white" stroke="none" points="-4,4 -4,-1250 934,-1250 934,4 -4,4"/>
<!-- 1856372 -->
<g id="node1" class="node"><title>1856372</title>
<ellipse fill="lightblue" stroke="lightblue" cx="268" cy="-1065" rx="80.415" ry="52.1524"/>
<text text-anchor="middle" x="268" y="-1090" font-family="Times,serif" font-size="10.00">code:decoder_t * p_dec</text>
<text text-anchor="middle" x="268" y="-1079" font-family="Times,serif" font-size="10.00">functionId:1856369</text>
<text text-anchor="middle" x="268" y="-1068" font-family="Times,serif" font-size="10.00">childNum:0</text>
<text text-anchor="middle" x="268" y="-1057" font-family="Times,serif" font-size="10.00">isCFGNode:True</text>
<text text-anchor="middle" x="268" y="-1046" font-family="Times,serif" font-size="10.00">type:Parameter</text>
<text text-anchor="middle" x="268" y="-1035" font-family="Times,serif" font-size="10.00">id:1856372</text>
</g>
<!-- 1856441 -->
<g id="node2" class="node"><title>1856441</title>
<ellipse fill="lightblue" stroke="lightblue" cx="268" cy="-921" rx="147.117" ry="52.1524"/>
<text text-anchor="middle" x="268" y="-946" font-family="Times,serif" font-size="10.00">code:decoder_sys_t * p_sys = p_dec &#45;&gt; p_sys ;</text>
<text text-anchor="middle" x="268" y="-935" font-family="Times,serif" font-size="10.00">functionId:1856369</text>
<text text-anchor="middle" x="268" y="-924" font-family="Times,serif" font-size="10.00">childNum:0</text>
<text text-anchor="middle" x="268" y="-913" font-family="Times,serif" font-size="10.00">isCFGNode:True</text>
<text text-anchor="middle" x="268" y="-902" font-family="Times,serif" font-size="10.00">type:IdentifierDeclStatement</text>
<text text-anchor="middle" x="268" y="-891" font-family="Times,serif" font-size="10.00">id:1856441</text>
</g>
<!-- 1856372&#45;&gt;1856441 -->
<g id="edge1" class="edge"><title>1856372&#45;&gt;1856441</title>
<path fill="none" stroke="lightblue" d="M268,-1012.33C268,-1003.02 268,-993.217 268,-983.649"/>
<polygon fill="lightblue" stroke="lightblue" points="271.5,-983.391 268,-973.391 264.5,-983.391 271.5,-983.391"/>
</g>
<!-- 1856423 -->
<g id="node3" class="node"><title>1856423</title>
<ellipse fill="lightblue" stroke="lightblue" cx="268" cy="-777" rx="268.551" ry="52.1524"/>
<text text-anchor="middle" x="268" y="-802" font-family="Times,serif" font-size="10.00">code:block_t * p_buf = decoder_NewAudioBuffer ( p_dec , p_sys &#45;&gt; frame . i_samples ) ;</text>
<text text-anchor="middle" x="268" y="-791" font-family="Times,serif" font-size="10.00">functionId:1856369</text>
<text text-anchor="middle" x="268" y="-780" font-family="Times,serif" font-size="10.00">childNum:1</text>
<text text-anchor="middle" x="268" y="-769" font-family="Times,serif" font-size="10.00">isCFGNode:True</text>
<text text-anchor="middle" x="268" y="-758" font-family="Times,serif" font-size="10.00">type:IdentifierDeclStatement</text>
<text text-anchor="middle" x="268" y="-747" font-family="Times,serif" font-size="10.00">id:1856423</text>
</g>
<!-- 1856441&#45;&gt;1856423 -->
<g id="edge2" class="edge"><title>1856441&#45;&gt;1856423</title>
<path fill="none" stroke="lightblue" d="M268,-868.333C268,-859.015 268,-849.217 268,-839.649"/>
<polygon fill="lightblue" stroke="lightblue" points="271.5,-839.391 268,-829.391 264.5,-839.391 271.5,-839.391"/>
</g>
<!-- 1856421 -->
<g id="node8" class="node"><title>1856421</title>
<ellipse fill="lightblue" stroke="lightblue" cx="268" cy="-633" rx="70.0054" ry="52.1524"/>
<text text-anchor="middle" x="268" y="-658" font-family="Times,serif" font-size="10.00">code:p_buf</text>
<text text-anchor="middle" x="268" y="-647" font-family="Times,serif" font-size="10.00">functionId:1856369</text>
<text text-anchor="middle" x="268" y="-636" font-family="Times,serif" font-size="10.00">childNum:0</text>
<text text-anchor="middle" x="268" y="-625" font-family="Times,serif" font-size="10.00">isCFGNode:True</text>
<text text-anchor="middle" x="268" y="-614" font-family="Times,serif" font-size="10.00">type:Condition</text>
<text text-anchor="middle" x="268" y="-603" font-family="Times,serif" font-size="10.00">id:1856421</text>
</g>
<!-- 1856423&#45;&gt;1856421 -->
<g id="edge8" class="edge"><title>1856423&#45;&gt;1856421</title>
<path fill="none" stroke="lightblue" d="M268,-724.333C268,-715.015 268,-705.217 268,-695.649"/>
<polygon fill="lightblue" stroke="lightblue" points="271.5,-695.391 268,-685.391 264.5,-695.391 271.5,-695.391"/>
</g>
<!-- 1856377 -->
<g id="node4" class="node"><title>1856377</title>
<ellipse fill="lightblue" stroke="lightblue" cx="346" cy="-181" rx="74.4303" ry="52.1524"/>
<text text-anchor="middle" x="346" y="-206" font-family="Times,serif" font-size="10.00">code:return p_buf ;</text>
<text text-anchor="middle" x="346" y="-195" font-family="Times,serif" font-size="10.00">functionId:1856369</text>
<text text-anchor="middle" x="346" y="-184" font-family="Times,serif" font-size="10.00">childNum:3</text>
<text text-anchor="middle" x="346" y="-173" font-family="Times,serif" font-size="10.00">isCFGNode:True</text>
<text text-anchor="middle" x="346" y="-162" font-family="Times,serif" font-size="10.00">type:ReturnStatement</text>
<text text-anchor="middle" x="346" y="-151" font-family="Times,serif" font-size="10.00">id:1856377</text>
</g>
<!-- 1856451 -->
<g id="node5" class="node"><title>1856451</title>
<ellipse fill="lightblue" stroke="lightblue" cx="346" cy="-45" rx="70.0054" ry="44.5955"/>
<text text-anchor="middle" x="346" y="-64.5" font-family="Times,serif" font-size="10.00">id:1856451</text>
<text text-anchor="middle" x="346" y="-53.5" font-family="Times,serif" font-size="10.00">code:EXIT</text>
<text text-anchor="middle" x="346" y="-42.5" font-family="Times,serif" font-size="10.00">type:CFGExitNode</text>
<text text-anchor="middle" x="346" y="-31.5" font-family="Times,serif" font-size="10.00">functionId:1856369</text>
<text text-anchor="middle" x="346" y="-20.5" font-family="Times,serif" font-size="10.00">isCFGNode:True</text>
</g>
<!-- 1856377&#45;&gt;1856451 -->
<g id="edge3" class="edge"><title>1856377&#45;&gt;1856451</title>
<path fill="none" stroke="lightblue" d="M346,-128.575C346,-119.144 346,-109.277 346,-99.7796"/>
<polygon fill="lightblue" stroke="lightblue" points="349.5,-99.6564 346,-89.6564 342.5,-99.6565 349.5,-99.6564"/>
</g>
<!-- 1856381 -->
<g id="node6" class="node"><title>1856381</title>
<ellipse fill="lightblue" stroke="lightblue" cx="605" cy="-325" rx="324.904" ry="52.1524"/>
<text text-anchor="middle" x="605" y="-350" font-family="Times,serif" font-size="10.00">code:p_buf &#45;&gt; i_length = date_Increment ( &amp; p_sys &#45;&gt; end_date , p_sys &#45;&gt; frame . i_samples ) &#45; p_buf &#45;&gt; i_pts</text>
<text text-anchor="middle" x="605" y="-339" font-family="Times,serif" font-size="10.00">functionId:1856369</text>
<text text-anchor="middle" x="605" y="-328" font-family="Times,serif" font-size="10.00">childNum:1</text>
<text text-anchor="middle" x="605" y="-317" font-family="Times,serif" font-size="10.00">isCFGNode:True</text>
<text text-anchor="middle" x="605" y="-306" font-family="Times,serif" font-size="10.00">type:ExpressionStatement</text>
<text text-anchor="middle" x="605" y="-295" font-family="Times,serif" font-size="10.00">id:1856381</text>
</g>
<!-- 1856381&#45;&gt;1856377 -->
<g id="edge4" class="edge"><title>1856381&#45;&gt;1856377</title>
<path fill="none" stroke="lightblue" d="M514.778,-274.535C481.427,-256.249 444.236,-235.859 413.272,-218.883"/>
<polygon fill="lightblue" stroke="lightblue" points="414.745,-215.699 404.294,-213.961 411.38,-221.837 414.745,-215.699"/>
</g>
<!-- 1856406 -->
<g id="node7" class="node"><title>1856406</title>
<ellipse fill="lightblue" stroke="lightblue" cx="528" cy="-479" rx="171.18" ry="52.1524"/>
<text text-anchor="middle" x="528" y="-504" font-family="Times,serif" font-size="10.00">code:p_buf &#45;&gt; i_pts = date_Get ( &amp; p_sys &#45;&gt; end_date )</text>
<text text-anchor="middle" x="528" y="-493" font-family="Times,serif" font-size="10.00">functionId:1856369</text>
<text text-anchor="middle" x="528" y="-482" font-family="Times,serif" font-size="10.00">childNum:0</text>
<text text-anchor="middle" x="528" y="-471" font-family="Times,serif" font-size="10.00">isCFGNode:True</text>
<text text-anchor="middle" x="528" y="-460" font-family="Times,serif" font-size="10.00">type:ExpressionStatement</text>
<text text-anchor="middle" x="528" y="-449" font-family="Times,serif" font-size="10.00">id:1856406</text>
</g>
<!-- 1856406&#45;&gt;1856381 -->
<g id="edge5" class="edge"><title>1856406&#45;&gt;1856381</title>
<path fill="none" stroke="lightblue" d="M553.854,-426.963C560.457,-413.93 567.618,-399.794 574.432,-386.342"/>
<polygon fill="lightblue" stroke="lightblue" points="577.686,-387.663 579.083,-377.161 571.442,-384.5 577.686,-387.663"/>
</g>
<!-- 1856421&#45;&gt;1856377 -->
<g id="edge6" class="edge"><title>1856421&#45;&gt;1856377</title>
<path fill="none" stroke="lightblue" d="M257.997,-581.194C246.205,-509.695 232.691,-376.45 271,-272 276.343,-257.432 285.162,-243.555 294.911,-231.249"/>
<polygon fill="lightblue" stroke="lightblue" points="297.733,-233.329 301.424,-223.398 292.345,-228.86 297.733,-233.329"/>
<text text-anchor="middle" x="258" y="-399.5" font-family="Times,serif" font-size="10.00">False</text>
</g>
<!-- 1856421&#45;&gt;1856406 -->
<g id="edge7" class="edge"><title>1856421&#45;&gt;1856406</title>
<path fill="none" stroke="lightblue" d="M322.505,-600.136C356.837,-580.065 401.92,-553.708 441.109,-530.798"/>
<polygon fill="lightblue" stroke="lightblue" points="443.026,-533.732 449.892,-525.663 439.493,-527.688 443.026,-533.732"/>
<text text-anchor="middle" x="414.5" y="-553.5" font-family="Times,serif" font-size="10.00">True</text>
</g>
<!-- 1856450 -->
<g id="node9" class="node"><title>1856450</title>
<ellipse fill="lightblue" stroke="lightblue" cx="268" cy="-1201" rx="72.1874" ry="44.5955"/>
<text text-anchor="middle" x="268" y="-1220.5" font-family="Times,serif" font-size="10.00">id:1856450</text>
<text text-anchor="middle" x="268" y="-1209.5" font-family="Times,serif" font-size="10.00">code:ENTRY</text>
<text text-anchor="middle" x="268" y="-1198.5" font-family="Times,serif" font-size="10.00">type:CFGEntryNode</text>
<text text-anchor="middle" x="268" y="-1187.5" font-family="Times,serif" font-size="10.00">functionId:1856369</text>
<text text-anchor="middle" x="268" y="-1176.5" font-family="Times,serif" font-size="10.00">isCFGNode:True</text>
</g>
<!-- 1856450&#45;&gt;1856372 -->
<g id="edge9" class="edge"><title>1856450&#45;&gt;1856372</title>
<path fill="none" stroke="lightblue" d="M268,-1156.12C268,-1147.04 268,-1137.32 268,-1127.73"/>
<polygon fill="lightblue" stroke="lightblue" points="271.5,-1127.43 268,-1117.43 264.5,-1127.43 271.5,-1127.43"/>
</g>
</g>
</svg>
