<?xml version="1.0" encoding="UTF-8" standalone="no"?>
<!DOCTYPE svg PUBLIC "-//W3C//DTD SVG 1.1//EN"
 "http://www.w3.org/Graphics/SVG/1.1/DTD/svg11.dtd">
<!-- Generated by graphviz version 2.36.0 (20140111.2315)
 -->
<!-- Title: %3 Pages: 1 -->
<svg width="935pt" height="1284pt"
 viewBox="0.00 0.00 935.00 1284.00" xmlns="http://www.w3.org/2000/svg" xmlns:xlink="http://www.w3.org/1999/xlink">
<g id="graph0" class="graph" transform="scale(1 1) rotate(0) translate(4 1280)">
<title>%3</title>
<polygon fill="white" stroke="none" points="-4,4 -4,-1280 931,-1280 931,4 -4,4"/>
<!-- 1856372 -->
<g id="node1" class="node"><title>1856372</title>
<ellipse fill="lightblue" stroke="lightblue" cx="425" cy="-1095" rx="80.415" ry="52.1524"/>
<text text-anchor="middle" x="425" y="-1120" font-family="Times,serif" font-size="10.00">code:decoder_t * p_dec</text>
<text text-anchor="middle" x="425" y="-1109" font-family="Times,serif" font-size="10.00">functionId:1856369</text>
<text text-anchor="middle" x="425" y="-1098" font-family="Times,serif" font-size="10.00">childNum:0</text>
<text text-anchor="middle" x="425" y="-1087" font-family="Times,serif" font-size="10.00">isCFGNode:True</text>
<text text-anchor="middle" x="425" y="-1076" font-family="Times,serif" font-size="10.00">type:Parameter</text>
<text text-anchor="middle" x="425" y="-1065" font-family="Times,serif" font-size="10.00">id:1856372</text>
</g>
<!-- 1856423 -->
<g id="node2" class="node"><title>1856423</title>
<ellipse fill="#68838b" stroke="#68838b" cx="268" cy="-787" rx="268.551" ry="52.1524"/>
<text text-anchor="middle" x="268" y="-812" font-family="Times,serif" font-size="10.00">code:block_t * p_buf = decoder_NewAudioBuffer ( p_dec , p_sys &#45;&gt; frame . i_samples ) ;</text>
<text text-anchor="middle" x="268" y="-801" font-family="Times,serif" font-size="10.00">functionId:1856369</text>
<text text-anchor="middle" x="268" y="-790" font-family="Times,serif" font-size="10.00">childNum:1</text>
<text text-anchor="middle" x="268" y="-779" font-family="Times,serif" font-size="10.00">isCFGNode:True</text>
<text text-anchor="middle" x="268" y="-768" font-family="Times,serif" font-size="10.00">type:IdentifierDeclStatement</text>
<text text-anchor="middle" x="268" y="-757" font-family="Times,serif" font-size="10.00">id:1856423</text>
</g>
<!-- 1856372&#45;&gt;1856423 -->
<g id="edge1" class="edge"><title>1856372&#45;&gt;1856423</title>
<path fill="none" stroke="lightcoral" d="M357.922,-1065.99C327.708,-1049.67 294.867,-1025.93 277,-994 252.484,-950.184 252.13,-892.545 256.821,-849.381"/>
<polygon fill="lightcoral" stroke="lightcoral" points="260.315,-849.641 258.037,-839.294 253.365,-848.803 260.315,-849.641"/>
<text text-anchor="middle" x="289.5" y="-938.5" font-family="Times,serif" font-size="10.00">p_dec</text>
</g>
<!-- 1856441 -->
<g id="node3" class="node"><title>1856441</title>
<ellipse fill="lightblue" stroke="lightblue" cx="458" cy="-941" rx="147.117" ry="52.1524"/>
<text text-anchor="middle" x="458" y="-966" font-family="Times,serif" font-size="10.00">code:decoder_sys_t * p_sys = p_dec &#45;&gt; p_sys ;</text>
<text text-anchor="middle" x="458" y="-955" font-family="Times,serif" font-size="10.00">functionId:1856369</text>
<text text-anchor="middle" x="458" y="-944" font-family="Times,serif" font-size="10.00">childNum:0</text>
<text text-anchor="middle" x="458" y="-933" font-family="Times,serif" font-size="10.00">isCFGNode:True</text>
<text text-anchor="middle" x="458" y="-922" font-family="Times,serif" font-size="10.00">type:IdentifierDeclStatement</text>
<text text-anchor="middle" x="458" y="-911" font-family="Times,serif" font-size="10.00">id:1856441</text>
</g>
<!-- 1856372&#45;&gt;1856441 -->
<g id="edge2" class="edge"><title>1856372&#45;&gt;1856441</title>
<path fill="none" stroke="lightblue" d="M432.984,-1042.67C434.789,-1032.48 436.823,-1021.87 439,-1012 439.657,-1009.02 440.359,-1005.98 441.093,-1002.92"/>
<polygon fill="lightblue" stroke="lightblue" points="444.52,-1003.64 443.525,-993.088 437.725,-1001.95 444.52,-1003.64"/>
</g>
<!-- 1856372&#45;&gt;1856441 -->
<g id="edge3" class="edge"><title>1856372&#45;&gt;1856441</title>
<path fill="none" stroke="lightcoral" d="M436.08,-1042.96C438.841,-1030.25 441.829,-1016.49 444.684,-1003.33"/>
<polygon fill="lightcoral" stroke="lightcoral" points="448.135,-1003.93 446.837,-993.42 441.294,-1002.45 448.135,-1003.93"/>
<text text-anchor="middle" x="455.5" y="-1015.5" font-family="Times,serif" font-size="10.00">p_dec</text>
</g>
<!-- 1856377 -->
<g id="node4" class="node"><title>1856377</title>
<ellipse fill="#68838b" stroke="#68838b" cx="249" cy="-181" rx="74.4303" ry="52.1524"/>
<text text-anchor="middle" x="249" y="-206" font-family="Times,serif" font-size="10.00">code:return p_buf ;</text>
<text text-anchor="middle" x="249" y="-195" font-family="Times,serif" font-size="10.00">functionId:1856369</text>
<text text-anchor="middle" x="249" y="-184" font-family="Times,serif" font-size="10.00">childNum:3</text>
<text text-anchor="middle" x="249" y="-173" font-family="Times,serif" font-size="10.00">isCFGNode:True</text>
<text text-anchor="middle" x="249" y="-162" font-family="Times,serif" font-size="10.00">type:ReturnStatement</text>
<text text-anchor="middle" x="249" y="-151" font-family="Times,serif" font-size="10.00">id:1856377</text>
</g>
<!-- 1856423&#45;&gt;1856377 -->
<g id="edge4" class="edge"><title>1856423&#45;&gt;1856377</title>
<path fill="none" stroke="lightcoral" d="M206.98,-735.746C181.187,-708.762 157,-673.048 157,-634 157,-634 157,-634 157,-324 157,-289.26 176.635,-256.312 197.763,-230.915"/>
<polygon fill="lightcoral" stroke="lightcoral" points="200.466,-233.14 204.347,-223.282 195.165,-228.568 200.466,-233.14"/>
<text text-anchor="middle" x="169.5" y="-476.5" font-family="Times,serif" font-size="10.00">p_buf</text>
</g>
<!-- 1856381 -->
<g id="node5" class="node"><title>1856381</title>
<ellipse fill="#68838b" stroke="#68838b" cx="602" cy="-325" rx="324.904" ry="52.1524"/>
<text text-anchor="middle" x="602" y="-350" font-family="Times,serif" font-size="10.00">code:p_buf &#45;&gt; i_length = date_Increment ( &amp; p_sys &#45;&gt; end_date , p_sys &#45;&gt; frame . i_samples ) &#45; p_buf &#45;&gt; i_pts</text>
<text text-anchor="middle" x="602" y="-339" font-family="Times,serif" font-size="10.00">functionId:1856369</text>
<text text-anchor="middle" x="602" y="-328" font-family="Times,serif" font-size="10.00">childNum:1</text>
<text text-anchor="middle" x="602" y="-317" font-family="Times,serif" font-size="10.00">isCFGNode:True</text>
<text text-anchor="middle" x="602" y="-306" font-family="Times,serif" font-size="10.00">type:ExpressionStatement</text>
<text text-anchor="middle" x="602" y="-295" font-family="Times,serif" font-size="10.00">id:1856381</text>
</g>
<!-- 1856423&#45;&gt;1856381 -->
<g id="edge5" class="edge"><title>1856423&#45;&gt;1856381</title>
<path fill="none" stroke="lightcoral" d="M244.733,-734.802C211.119,-652.201 161.698,-489.373 246,-396 260.203,-380.268 291.541,-367.97 330.022,-358.388"/>
<polygon fill="lightcoral" stroke="lightcoral" points="331.043,-361.742 339.953,-356.01 329.413,-354.935 331.043,-361.742"/>
<text text-anchor="middle" x="213.5" y="-553.5" font-family="Times,serif" font-size="10.00">p_buf</text>
</g>
<!-- 1856406 -->
<g id="node6" class="node"><title>1856406</title>
<ellipse fill="#68838b" stroke="#68838b" cx="448" cy="-479" rx="171.18" ry="52.1524"/>
<text text-anchor="middle" x="448" y="-504" font-family="Times,serif" font-size="10.00">code:p_buf &#45;&gt; i_pts = date_Get ( &amp; p_sys &#45;&gt; end_date )</text>
<text text-anchor="middle" x="448" y="-493" font-family="Times,serif" font-size="10.00">functionId:1856369</text>
<text text-anchor="middle" x="448" y="-482" font-family="Times,serif" font-size="10.00">childNum:0</text>
<text text-anchor="middle" x="448" y="-471" font-family="Times,serif" font-size="10.00">isCFGNode:True</text>
<text text-anchor="middle" x="448" y="-460" font-family="Times,serif" font-size="10.00">type:ExpressionStatement</text>
<text text-anchor="middle" x="448" y="-449" font-family="Times,serif" font-size="10.00">id:1856406</text>
</g>
<!-- 1856423&#45;&gt;1856406 -->
<g id="edge6" class="edge"><title>1856423&#45;&gt;1856406</title>
<path fill="none" stroke="lightcoral" d="M340.77,-736.389C357.903,-721.835 374.727,-704.736 387,-686 415.666,-642.239 431.231,-584.595 439.446,-541.415"/>
<polygon fill="lightcoral" stroke="lightcoral" points="442.936,-541.789 441.283,-531.324 436.049,-540.535 442.936,-541.789"/>
<text text-anchor="middle" x="443.5" y="-630.5" font-family="Times,serif" font-size="10.00">p_buf</text>
</g>
<!-- 1856421 -->
<g id="node7" class="node"><title>1856421</title>
<ellipse fill="#68838b" stroke="#68838b" cx="308" cy="-633" rx="70.0054" ry="52.1524"/>
<text text-anchor="middle" x="308" y="-658" font-family="Times,serif" font-size="10.00">code:p_buf</text>
<text text-anchor="middle" x="308" y="-647" font-family="Times,serif" font-size="10.00">functionId:1856369</text>
<text text-anchor="middle" x="308" y="-636" font-family="Times,serif" font-size="10.00">childNum:0</text>
<text text-anchor="middle" x="308" y="-625" font-family="Times,serif" font-size="10.00">isCFGNode:True</text>
<text text-anchor="middle" x="308" y="-614" font-family="Times,serif" font-size="10.00">type:Condition</text>
<text text-anchor="middle" x="308" y="-603" font-family="Times,serif" font-size="10.00">id:1856421</text>
</g>
<!-- 1856423&#45;&gt;1856421 -->
<g id="edge7" class="edge"><title>1856423&#45;&gt;1856421</title>
<path fill="none" stroke="lightblue" d="M288.275,-734.745C290.383,-728.486 292.352,-722.135 294,-716 295.787,-709.346 297.394,-702.325 298.826,-695.304"/>
<polygon fill="lightblue" stroke="lightblue" points="302.344,-695.543 300.8,-685.061 295.471,-694.219 302.344,-695.543"/>
</g>
<!-- 1856423&#45;&gt;1856421 -->
<g id="edge8" class="edge"><title>1856423&#45;&gt;1856421</title>
<path fill="none" stroke="lightcoral" d="M261.255,-734.673C261.255,-724.375 262.249,-713.733 265,-704 266.479,-698.767 268.471,-693.541 270.79,-688.434"/>
<polygon fill="lightcoral" stroke="lightcoral" points="273.965,-689.911 275.279,-679.398 267.696,-686.796 273.965,-689.911"/>
<text text-anchor="middle" x="277.5" y="-707.5" font-family="Times,serif" font-size="10.00">p_buf</text>
</g>
<!-- 1856441&#45;&gt;1856423 -->
<g id="edge9" class="edge"><title>1856441&#45;&gt;1856423</title>
<path fill="none" stroke="lightblue" d="M399.184,-892.947C379.941,-877.553 358.369,-860.296 338.364,-844.291"/>
<polygon fill="lightblue" stroke="lightblue" points="340.484,-841.505 330.489,-837.991 336.111,-846.971 340.484,-841.505"/>
</g>
<!-- 1856441&#45;&gt;1856423 -->
<g id="edge10" class="edge"><title>1856441&#45;&gt;1856423</title>
<path fill="none" stroke="lightcoral" d="M412.991,-890.884C401.695,-879.575 389.28,-867.955 377,-858 370.797,-852.971 364.217,-847.991 357.485,-843.142"/>
<polygon fill="lightcoral" stroke="lightcoral" points="359.081,-839.985 348.893,-837.077 355.044,-845.703 359.081,-839.985"/>
<text text-anchor="middle" x="401" y="-861.5" font-family="Times,serif" font-size="10.00">p_sys</text>
</g>
<!-- 1856441&#45;&gt;1856381 -->
<g id="edge11" class="edge"><title>1856441&#45;&gt;1856381</title>
<path fill="none" stroke="lightcoral" d="M556.928,-902.084C602.657,-877.507 647,-840.213 647,-788 647,-788 647,-788 647,-478 647,-447.104 638.346,-414.075 628.628,-386.725"/>
<polygon fill="lightcoral" stroke="lightcoral" points="631.898,-385.476 625.159,-377.3 625.329,-387.894 631.898,-385.476"/>
<text text-anchor="middle" x="659" y="-630.5" font-family="Times,serif" font-size="10.00">p_sys</text>
</g>
<!-- 1856441&#45;&gt;1856406 -->
<g id="edge12" class="edge"><title>1856441&#45;&gt;1856406</title>
<path fill="none" stroke="lightcoral" d="M511.832,-892.088C525.264,-876.912 537.864,-859.074 545,-840 583.607,-736.804 527.987,-611.679 486.379,-539.412"/>
<polygon fill="lightcoral" stroke="lightcoral" points="489.197,-537.299 481.125,-530.436 483.155,-540.834 489.197,-537.299"/>
<text text-anchor="middle" x="566" y="-707.5" font-family="Times,serif" font-size="10.00">p_sys</text>
</g>
<!-- 1856451 -->
<g id="node8" class="node"><title>1856451</title>
<ellipse fill="lightblue" stroke="lightblue" cx="249" cy="-45" rx="70.0054" ry="44.5955"/>
<text text-anchor="middle" x="249" y="-64.5" font-family="Times,serif" font-size="10.00">id:1856451</text>
<text text-anchor="middle" x="249" y="-53.5" font-family="Times,serif" font-size="10.00">code:EXIT</text>
<text text-anchor="middle" x="249" y="-42.5" font-family="Times,serif" font-size="10.00">type:CFGExitNode</text>
<text text-anchor="middle" x="249" y="-31.5" font-family="Times,serif" font-size="10.00">functionId:1856369</text>
<text text-anchor="middle" x="249" y="-20.5" font-family="Times,serif" font-size="10.00">isCFGNode:True</text>
</g>
<!-- 1856377&#45;&gt;1856451 -->
<g id="edge13" class="edge"><title>1856377&#45;&gt;1856451</title>
<path fill="none" stroke="lightblue" d="M249,-128.575C249,-119.144 249,-109.277 249,-99.7796"/>
<polygon fill="lightblue" stroke="lightblue" points="252.5,-99.6564 249,-89.6564 245.5,-99.6565 252.5,-99.6564"/>
</g>
<!-- 1856381&#45;&gt;1856377 -->
<g id="edge14" class="edge"><title>1856381&#45;&gt;1856377</title>
<path fill="none" stroke="lightblue" d="M482.982,-276.123C429.802,-254.731 368.806,-230.194 322.427,-211.537"/>
<polygon fill="lightblue" stroke="lightblue" points="323.64,-208.253 313.057,-207.768 321.028,-214.747 323.64,-208.253"/>
</g>
<!-- 1856406&#45;&gt;1856381 -->
<g id="edge15" class="edge"><title>1856406&#45;&gt;1856381</title>
<path fill="none" stroke="lightblue" d="M506.715,-429.673C514.705,-422.582 522.67,-415.229 530,-408 537.539,-400.565 545.218,-392.468 552.617,-384.353"/>
<polygon fill="lightblue" stroke="lightblue" points="555.227,-386.685 559.321,-376.913 550.026,-381.999 555.227,-386.685"/>
</g>
<!-- 1856406&#45;&gt;1856381 -->
<g id="edge16" class="edge"><title>1856406&#45;&gt;1856381</title>
<path fill="none" stroke="lightcoral" d="M453.575,-426.395C456.582,-415.557 461.134,-404.768 468,-396 472.24,-390.585 477.016,-385.545 482.174,-380.861"/>
<polygon fill="lightcoral" stroke="lightcoral" points="484.614,-383.381 489.986,-374.249 480.092,-378.038 484.614,-383.381"/>
<text text-anchor="middle" x="497" y="-399.5" font-family="Times,serif" font-size="10.00">p_buf &#45;&gt; i_pts</text>
</g>
<!-- 1856421&#45;&gt;1856377 -->
<g id="edge17" class="edge"><title>1856421&#45;&gt;1856377</title>
<path fill="none" stroke="lightblue" d="M284.878,-583.42C278.259,-567.397 271.811,-549.254 268,-532 246.079,-432.745 244.675,-314.008 246.347,-243.468"/>
<polygon fill="lightblue" stroke="lightblue" points="249.847,-243.508 246.614,-233.419 242.849,-243.322 249.847,-243.508"/>
<text text-anchor="middle" x="262" y="-399.5" font-family="Times,serif" font-size="10.00">False</text>
</g>
<!-- 1856421&#45;&gt;1856406 -->
<g id="edge18" class="edge"><title>1856421&#45;&gt;1856406</title>
<path fill="none" stroke="lightblue" d="M347.37,-589.255C362.169,-573.188 379.242,-554.651 395.074,-537.462"/>
<polygon fill="lightblue" stroke="lightblue" points="398.048,-539.399 402.249,-529.673 392.9,-534.657 398.048,-539.399"/>
<text text-anchor="middle" x="392.5" y="-553.5" font-family="Times,serif" font-size="10.00">True</text>
</g>
<!-- 1856450 -->
<g id="node9" class="node"><title>1856450</title>
<ellipse fill="lightblue" stroke="lightblue" cx="425" cy="-1231" rx="72.1874" ry="44.5955"/>
<text text-anchor="middle" x="425" y="-1250.5" font-family="Times,serif" font-size="10.00">id:1856450</text>
<text text-anchor="middle" x="425" y="-1239.5" font-family="Times,serif" font-size="10.00">code:ENTRY</text>
<text text-anchor="middle" x="425" y="-1228.5" font-family="Times,serif" font-size="10.00">type:CFGEntryNode</text>
<text text-anchor="middle" x="425" y="-1217.5" font-family="Times,serif" font-size="10.00">functionId:1856369</text>
<text text-anchor="middle" x="425" y="-1206.5" font-family="Times,serif" font-size="10.00">isCFGNode:True</text>
</g>
<!-- 1856450&#45;&gt;1856372 -->
<g id="edge19" class="edge"><title>1856450&#45;&gt;1856372</title>
<path fill="none" stroke="lightblue" d="M425,-1186.12C425,-1177.04 425,-1167.32 425,-1157.73"/>
<polygon fill="lightblue" stroke="lightblue" points="428.5,-1157.43 425,-1147.43 421.5,-1157.43 428.5,-1157.43"/>
</g>
</g>
</svg>
